PathFileType	4	(X/Y/Z)	C:/Users/opensim2020/Desktop/walking_exp_matlab/subject06_walking17_straight_03.trc																																																																																																																																					
DataRate	CameraRate	NumFrames	NumMarkers	Units	OrigDataRate	OrigDataStartFrame	OrigNumFrames																																																																																																																																	
100	100	4	45	mm	100	3208	295																																																																																																																																	
Frame#	Time	LFHD			RFHD			LBHD			RBHD			C7			T10			CLAV			STRN			RBAK			LSHO			LUPA			LELB			LFRM			LWRA			LWRB			LFIN			RSHO			RUPA			RELB			RFRM			RWRA			RWRB			RFIN			LASI			RASI			LPSI			RPSI			LTHI			LKNE			LTIB			LANK			LHEE			LTOE			RTHI			RKNE			RTIB			RANK			RHEE			RTOE			*39			*40			*41			*42			*43			*44		
		X1	Y1	Z1	X2	Y2	Z2	X3	Y3	Z3	X4	Y4	Z4	X5	Y5	Z5	X6	Y6	Z6	X7	Y7	Z7	X8	Y8	Z8	X9	Y9	Z9	X10	Y10	Z10	X11	Y11	Z11	X12	Y12	Z12	X13	Y13	Z13	X14	Y14	Z14	X15	Y15	Z15	X16	Y16	Z16	X17	Y17	Z17	X18	Y18	Z18	X19	Y19	Z19	X20	Y20	Z20	X21	Y21	Z21	X22	Y22	Z22	X23	Y23	Z23	X24	Y24	Z24	X25	Y25	Z25	X26	Y26	Z26	X27	Y27	Z27	X28	Y28	Z28	X29	Y29	Z29	X30	Y30	Z30	X31	Y31	Z31	X32	Y32	Z32	X33	Y33	Z33	X34	Y34	Z34	X35	Y35	Z35	X36	Y36	Z36	X37	Y37	Z37	X38	Y38	Z38	X39	Y39	Z39	X40	Y40	Z40	X41	Y41	Z41	X42	Y42	Z42	X43	Y43	Z43	X44	Y44	Z44	X45	Y45	Z45
																																																																																																																																								
1	0	-764.06848	1668.16333	-1052.38684	-777.15192	1651.08435	-923.99854	-896.52716	1610.75781	-1068.96594	-906.37408	1599.05847	-940.19409	-899.80872	1454.2323	-1009.24896	-940.41364	1126.01636	-998.82312	-792.47644	1373.22156	-1009.83801	-757.21411	1197.36816	-1013.4801	-974.55359	1287.84155	-922.72479	-848.82349	1404.77454	-1170.86658	-873.61536	1203.42566	-1239.96777	-891.27814	1092.1095	-1251.16052	-874.31152	943.93134	-1279.90271	-806.24707	829.29291	-1252.06653	-873.60419	824.12708	-1276.66516	-831.35339	744.23889	-1287.71167	-828.21844	1408.6571	-847.94592	-851.33112	1213.10767	-749.96973	-829.46057	1092.60742	-734.04456	-786.7323	980.29779	-724.97943	-710.125	857.37329	-780.39221	-744.57526	850.50543	-722.61969	-692.9975	785.10297	-735.50751	-758.29474	966.6452	-1107.63464	-766.52081	968.37323	-887.45941	-917.55585	990.78168	-1087.15405	-917.13727	993.66724	-917.82324	-769.92822	652.39197	-1168.35352	-733.22247	494.09399	-1139.7345	-801.30328	249.94847	-1147.22424	-824.43481	76.9539	-1117.52185	-862.05157	60.30124	-1068.47852	-686.72919	43.47335	-1130.28113	-836.66235	633.08044	-850.34674	-845.72534	507.47336	-875.71735	-918.80853	248.93921	-889.3493	-950.00256	67.72845	-946.6767	-991.29083	45.5521	-991.89148	-797.8136	30.95396	-943.27203	-872.09344	1701.25378	-1003.05621	NaN	NaN	NaN	NaN	NaN	NaN	NaN	NaN	NaN	NaN	NaN	NaN	NaN	NaN	NaN
2	0.01	-758.35992	1667.68848	-1052.22852	-770.81598	1650.85876	-923.65179	-890.87836	1610.38965	-1068.5166	-900.42761	1598.7937	-939.716	-894.08972	1453.86353	-1008.7157	-934.81598	1125.64282	-998.13477	-786.75226	1372.91113	-1009.52124	-751.63062	1196.96899	-1013.00739	-968.75439	1287.56262	-921.90973	-844.05463	1404.56946	-1170.90222	-869.72101	1203.36047	-1239.64209	-888.22412	1092.17749	-1250.98572	-872.5979	943.76947	-1279.34985	-805.8739	828.55164	-1251.45129	-873.8855	824.19525	-1276.77637	-832.65259	743.52783	-1287.13391	-822.23499	1408.41064	-847.61334	-844.41095	1212.99377	-749.19678	-821.85754	1092.62439	-733.1958	-778.43274	980.59192	-724.17059	-701.14374	858.15546	-779.63245	-735.53186	851.07666	-721.86481	-683.49524	785.98334	-734.81226	-752.10345	966.57776	-1106.77649	-761.25568	967.77118	-886.68414	-911.65399	990.61115	-1086.83423	-911.6911	993.22913	-917.47559	-763.5611	652.50989	-1168.42896	-725.57953	494.41806	-1139.96826	-785.23633	247.8987	-1147.08899	-801.54291	74.31392	-1116.7373	-839.55743	57.09729	-1068.09009	-663.38495	43.63791	-1127.47632	-832.56866	632.54395	-850.26379	-842.21564	507.01569	-875.59216	-917.28638	248.97017	-889.55438	-949.82086	67.90582	-946.68677	-991.21185	45.89048	-991.90509	-797.70245	30.88766	-943.27325	-866.16492	1700.92285	-1002.7525	NaN	NaN	NaN	NaN	NaN	NaN	NaN	NaN	NaN	NaN	NaN	NaN	NaN	NaN	NaN
3	0.02	-752.63092	1667.23315	-1052.22327	-764.91998	1650.39038	-923.52631	-885.18481	1609.97363	-1068.11328	-894.40875	1598.48315	-939.26471	-888.34521	1453.44775	-1008.21533	-929.09369	1125.2002	-997.54688	-781.13959	1372.4613	-1009.18292	-746.01569	1196.53711	-1012.59229	-962.89252	1287.22998	-921.10999	-838.4563	1404.07727	-1170.16553	-866.10645	1203.2738	-1239.93201	-885.24768	1092.28625	-1250.7843	-871.19952	943.72949	-1279.16223	-805.62219	827.91187	-1250.34509	-873.82318	824.23663	-1276.76514	-833.62701	742.927	-1286.49158	-816.22089	1408.11133	-847.33313	-837.46118	1212.85132	-748.58521	-814.34583	1092.59705	-732.44757	-770.23419	980.81476	-723.44458	-692.28229	858.88239	-778.90106	-726.6153	851.54785	-721.14429	-674.58856	786.86786	-733.953	-746.04492	966.45392	-1106.04041	-755.71094	967.2843	-886.07233	-905.72266	990.37927	-1086.54358	-906.1897	992.76984	-917.12109	-757.09314	652.67188	-1168.61536	-718.09509	494.67023	-1140.22083	-769.42908	246.13536	-1146.79956	-779.34155	72.25877	-1115.84424	-817.5257	55.08178	-1067.53174	-640.52576	43.60406	-1124.49011	-828.42108	632.0246	-850.13812	-838.61353	506.43985	-875.43781	-915.66022	248.92079	-889.3183	-949.63422	68.13101	-946.69189	-991.0918	46.20771	-991.95837	-797.60266	30.83763	-943.22913	-860.2887	1700.52173	-1002.43683	NaN	NaN	NaN	NaN	NaN	NaN	NaN	NaN	NaN	NaN	NaN	NaN	NaN	NaN	NaN
4	0.03	-746.8009	1666.70825	-1052.18481	-758.75305	1650.0083	-923.30078	-879.44635	1609.53406	-1067.74731	-888.42029	1598.07373	-938.83649	-882.55457	1453.03809	-1007.74103	-923.47363	1124.80896	-996.97485	-775.34796	1372.00745	-1009.17377	-740.38086	1196.00427	-1012.20874	-957.05573	1286.89697	-920.39722	-833.0564	1403.6521	-1169.78821	-861.76398	1203.1676	-1239.19287	-882.32318	1092.40442	-1250.47803	-869.54254	943.65155	-1278.8219	-805.56293	827.04852	-1249.4375	-873.53949	824.2392	-1276.75903	-834.36053	742.3208	-1285.86523	-810.22107	1407.81201	-847.01642	-830.57916	1212.61768	-748.04974	-806.95721	1092.52075	-731.72516	-762.19427	981.04077	-722.67249	-683.44843	859.62689	-778.10944	-717.78815	851.99097	-720.51685	-664.99939	787.65369	-733.36993	-740.18787	966.20093	-1105.29663	-750.35736	966.73486	-885.37573	-899.84155	990.13092	-1086.2699	-900.74841	992.35559	-916.82373	-750.62738	652.83594	-1168.88525	-710.7049	494.90891	-1140.60498	-753.83954	244.75708	-1146.28369	-757.97186	70.85033	-1114.78394	-796.19409	53.88037	-1066.52808	-618.3222	43.0443	-1121.57849	-824.2619	631.61743	-850.00372	-834.89917	505.99045	-875.27448	-914.08051	248.92072	-889.2843	-949.38635	68.34259	-946.74982	-990.96143	46.61436	-991.99817	-797.58704	30.82403	-943.1806	-854.34943	1700.10779	-1002.21173	NaN	NaN	NaN	NaN	NaN	NaN	NaN	NaN	NaN	NaN	NaN	NaN	NaN	NaN	NaN
